<svg xmlns="http://www.w3.org/2000/svg" xmlns:xlink="http://www.w3.org/1999/xlink" version="1.1" class="marks" width="594" height="559" viewBox="0 0 594 559"><rect width="594" height="559" fill="#EEE5E9"/><g fill="none" stroke-miterlimit="10" transform="translate(68,11)"><g class="mark-group role-frame root" role="graphics-object" aria-roledescription="group mark container"><g transform="translate(0,0)"><path class="background" aria-hidden="true" d="M0,0h0v0h0Z"/><g><g class="mark-group role-scope concat_0_group" role="graphics-object" aria-roledescription="group mark container"><g transform="translate(0,0)"><path class="background" aria-hidden="true" d="M0.5,0.5h520v300h-520Z" stroke="#ddd"/><g><g class="mark-group role-axis" aria-hidden="true"><g transform="translate(0.5,0.5)"><path class="background" aria-hidden="true" d="M0,0h0v0h0Z" pointer-events="none"/><g><g class="mark-rule role-axis-grid" pointer-events="none"><line transform="translate(0,300)" x2="520" y2="0" stroke="#ddd" stroke-width="1" opacity="1"/><line transform="translate(0,273)" x2="520" y2="0" stroke="#ddd" stroke-width="1" opacity="1"/><line transform="translate(0,245)" x2="520" y2="0" stroke="#ddd" stroke-width="1" opacity="1"/><line transform="translate(0,218)" x2="520" y2="0" stroke="#ddd" stroke-width="1" opacity="1"/><line transform="translate(0,191)" x2="520" y2="0" stroke="#ddd" stroke-width="1" opacity="1"/><line transform="translate(0,164)" x2="520" y2="0" stroke="#ddd" stroke-width="1" opacity="1"/><line transform="translate(0,136)" x2="520" y2="0" stroke="#ddd" stroke-width="1" opacity="1"/><line transform="translate(0,109)" x2="520" y2="0" stroke="#ddd" stroke-width="1" opacity="1"/><line transform="translate(0,82)" x2="520" y2="0" stroke="#ddd" stroke-width="1" opacity="1"/><line transform="translate(0,55)" x2="520" y2="0" stroke="#ddd" stroke-width="1" opacity="1"/><line transform="translate(0,27)" x2="520" y2="0" stroke="#ddd" stroke-width="1" opacity="1"/><line transform="translate(0,0)" x2="520" y2="0" stroke="#ddd" stroke-width="1" opacity="1"/></g></g><path class="foreground" aria-hidden="true" d="" pointer-events="none" display="none"/></g></g><g class="mark-group role-axis" role="graphics-symbol" aria-roledescription="axis" aria-label="X-axis titled 'Enterprise' for a discrete scale with 26 values: Bakery, Bindery, Cleaning Products, Coffee Roasting, Construction Services and Facility Maintenance, ending with Shoes"><g transform="translate(0.5,300.5)"><path class="background" aria-hidden="true" d="M0,0h0v0h0Z" pointer-events="none"/><g><g class="mark-rule role-axis-tick" pointer-events="none"><line transform="translate(10,0)" x2="0" y2="5" stroke="#888" stroke-width="1" opacity="1"/><line transform="translate(30,0)" x2="0" y2="5" stroke="#888" stroke-width="1" opacity="1"/><line transform="translate(50,0)" x2="0" y2="5" stroke="#888" stroke-width="1" opacity="1"/><line transform="translate(70,0)" x2="0" y2="5" stroke="#888" stroke-width="1" opacity="1"/><line transform="translate(90,0)" x2="0" y2="5" stroke="#888" stroke-width="1" opacity="1"/><line transform="translate(110,0)" x2="0" y2="5" stroke="#888" stroke-width="1" opacity="1"/><line transform="translate(130,0)" x2="0" y2="5" stroke="#888" stroke-width="1" opacity="1"/><line transform="translate(150,0)" x2="0" y2="5" stroke="#888" stroke-width="1" opacity="1"/><line transform="translate(170,0)" x2="0" y2="5" stroke="#888" stroke-width="1" opacity="1"/><line transform="translate(190,0)" x2="0" y2="5" stroke="#888" stroke-width="1" opacity="1"/><line transform="translate(210,0)" x2="0" y2="5" stroke="#888" stroke-width="1" opacity="1"/><line transform="translate(230,0)" x2="0" y2="5" stroke="#888" stroke-width="1" opacity="1"/><line transform="translate(250,0)" x2="0" y2="5" stroke="#888" stroke-width="1" opacity="1"/><line transform="translate(270,0)" x2="0" y2="5" stroke="#888" stroke-width="1" opacity="1"/><line transform="translate(290,0)" x2="0" y2="5" stroke="#888" stroke-width="1" opacity="1"/><line transform="translate(310,0)" x2="0" y2="5" stroke="#888" stroke-width="1" opacity="1"/><line transform="translate(330,0)" x2="0" y2="5" stroke="#888" stroke-width="1" opacity="1"/><line transform="translate(350,0)" x2="0" y2="5" stroke="#888" stroke-width="1" opacity="1"/><line transform="translate(370,0)" x2="0" y2="5" stroke="#888" stroke-width="1" opacity="1"/><line transform="translate(390,0)" x2="0" y2="5" stroke="#888" stroke-width="1" opacity="1"/><line transform="translate(410,0)" x2="0" y2="5" stroke="#888" stroke-width="1" opacity="1"/><line transform="translate(430,0)" x2="0" y2="5" stroke="#888" stroke-width="1" opacity="1"/><line transform="translate(450,0)" x2="0" y2="5" stroke="#888" stroke-width="1" opacity="1"/><line transform="translate(470,0)" x2="0" y2="5" stroke="#888" stroke-width="1" opacity="1"/><line transform="translate(490,0)" x2="0" y2="5" stroke="#888" stroke-width="1" opacity="1"/><line transform="translate(510,0)" x2="0" y2="5" stroke="#888" stroke-width="1" opacity="1"/></g><g class="mark-text role-axis-label" pointer-events="none"><text text-anchor="end" transform="translate(9.5,7) rotate(270) translate(0,3)" font-family="Georgia" font-size="10px" fill="#000" opacity="1">Bakery</text><text text-anchor="end" transform="translate(29.5,7) rotate(270) translate(0,3)" font-family="Georgia" font-size="10px" fill="#000" opacity="1">Bindery</text><text text-anchor="end" transform="translate(49.5,7) rotate(270) translate(0,3)" font-family="Georgia" font-size="10px" fill="#000" opacity="1">Cleaning Products</text><text text-anchor="end" transform="translate(69.5,7) rotate(270) translate(0,3)" font-family="Georgia" font-size="10px" fill="#000" opacity="1">Coffee Roasting</text><text text-anchor="end" transform="translate(89.5,7) rotate(270) translate(0,3)" font-family="Georgia" font-size="10px" fill="#000" opacity="1">Construction Services and Facility Mai…</text><text text-anchor="end" transform="translate(109.5,7) rotate(270) translate(0,3)" font-family="Georgia" font-size="10px" fill="#000" opacity="1">Crops</text><text text-anchor="end" transform="translate(129.5,7) rotate(270) translate(0,3)" font-family="Georgia" font-size="10px" fill="#000" opacity="1">Dairy</text><text text-anchor="end" transform="translate(149.5,7) rotate(270) translate(0,3)" font-family="Georgia" font-size="10px" fill="#000" opacity="1">Dental Lab</text><text text-anchor="end" transform="translate(169.5,7) rotate(270) translate(0,3)" font-family="Georgia" font-size="10px" fill="#000" opacity="1">Digital Services</text><text text-anchor="end" transform="translate(189.5,7) rotate(270) translate(0,3)" font-family="Georgia" font-size="10px" fill="#000" opacity="1">Egg Production</text><text text-anchor="end" transform="translate(209.5,7) rotate(270) translate(0,3)" font-family="Georgia" font-size="10px" fill="#000" opacity="1">Fabric Products</text><text text-anchor="end" transform="translate(229.5,7) rotate(270) translate(0,3)" font-family="Georgia" font-size="10px" fill="#000" opacity="1">Food and Beverage Packaging</text><text text-anchor="end" transform="translate(249.5,7) rotate(270) translate(0,3)" font-family="Georgia" font-size="10px" fill="#000" opacity="1">Furniture</text><text text-anchor="end" transform="translate(269.5,7) rotate(270) translate(0,3)" font-family="Georgia" font-size="10px" fill="#000" opacity="1">General Fabrication</text><text text-anchor="end" transform="translate(289.5,7) rotate(270) translate(0,3)" font-family="Georgia" font-size="10px" fill="#000" opacity="1">Knitting Mill</text><text text-anchor="end" transform="translate(309.5,7) rotate(270) translate(0,3)" font-family="Georgia" font-size="10px" fill="#000" opacity="1">Laundry</text><text text-anchor="end" transform="translate(329.5,7) rotate(270) translate(0,3)" font-family="Georgia" font-size="10px" fill="#000" opacity="1">License Plates</text><text text-anchor="end" transform="translate(349.5,7) rotate(270) translate(0,3)" font-family="Georgia" font-size="10px" fill="#000" opacity="1">Mattresses</text><text text-anchor="end" transform="translate(369.5,7) rotate(270) translate(0,3)" font-family="Georgia" font-size="10px" fill="#000" opacity="1">Meat Cutting</text><text text-anchor="end" transform="translate(389.5,7) rotate(270) translate(0,3)" font-family="Georgia" font-size="10px" fill="#000" opacity="1">Metal Products</text><text text-anchor="end" transform="translate(409.5,7) rotate(270) translate(0,3)" font-family="Georgia" font-size="10px" fill="#000" opacity="1">Metal Signs</text><text text-anchor="end" transform="translate(429.5,7) rotate(270) translate(0,3)" font-family="Georgia" font-size="10px" fill="#000" opacity="1">Modular Construction</text><text text-anchor="end" transform="translate(449.5,7) rotate(270) translate(0,3)" font-family="Georgia" font-size="10px" fill="#000" opacity="1">Optical</text><text text-anchor="end" transform="translate(469.5,7) rotate(270) translate(0,3)" font-family="Georgia" font-size="10px" fill="#000" opacity="1">Poultry</text><text text-anchor="end" transform="translate(489.5,7) rotate(270) translate(0,3)" font-family="Georgia" font-size="10px" fill="#000" opacity="1">Printing</text><text text-anchor="end" transform="translate(509.5,7) rotate(270) translate(0,3)" font-family="Georgia" font-size="10px" fill="#000" opacity="1">Shoes</text></g><g class="mark-rule role-axis-domain" pointer-events="none"><line transform="translate(0,0)" x2="520" y2="0" stroke="#888" stroke-width="1" opacity="1"/></g><g class="mark-text role-axis-title" pointer-events="none"><text text-anchor="middle" transform="translate(260,200)" font-family="Georgia" font-size="11px" font-weight="bold" fill="#000" opacity="1">Enterprise</text></g></g><path class="foreground" aria-hidden="true" d="" pointer-events="none" display="none"/></g></g><g class="mark-group role-axis" role="graphics-symbol" aria-roledescription="axis" aria-label="Y-axis titled 'Profit per Prison Worker' for a linear scale with values from −50,000 to 500,000"><g transform="translate(0.5,0.5)"><path class="background" aria-hidden="true" d="M0,0h0v0h0Z" pointer-events="none"/><g><g class="mark-rule role-axis-tick" pointer-events="none"><line transform="translate(0,300)" x2="-5" y2="0" stroke="#888" stroke-width="1" opacity="1"/><line transform="translate(0,273)" x2="-5" y2="0" stroke="#888" stroke-width="1" opacity="1"/><line transform="translate(0,245)" x2="-5" y2="0" stroke="#888" stroke-width="1" opacity="1"/><line transform="translate(0,218)" x2="-5" y2="0" stroke="#888" stroke-width="1" opacity="1"/><line transform="translate(0,191)" x2="-5" y2="0" stroke="#888" stroke-width="1" opacity="1"/><line transform="translate(0,164)" x2="-5" y2="0" stroke="#888" stroke-width="1" opacity="1"/><line transform="translate(0,136)" x2="-5" y2="0" stroke="#888" stroke-width="1" opacity="1"/><line transform="translate(0,109)" x2="-5" y2="0" stroke="#888" stroke-width="1" opacity="1"/><line transform="translate(0,82)" x2="-5" y2="0" stroke="#888" stroke-width="1" opacity="1"/><line transform="translate(0,55)" x2="-5" y2="0" stroke="#888" stroke-width="1" opacity="1"/><line transform="translate(0,27)" x2="-5" y2="0" stroke="#888" stroke-width="1" opacity="1"/><line transform="translate(0,0)" x2="-5" y2="0" stroke="#888" stroke-width="1" opacity="1"/></g><g class="mark-text role-axis-label" pointer-events="none"><text text-anchor="end" transform="translate(-7,303)" font-family="Georgia" font-size="10px" fill="#000" opacity="1">−50,000</text><text text-anchor="end" transform="translate(-7,275.7272727272727)" font-family="Georgia" font-size="10px" fill="#000" opacity="1">0</text><text text-anchor="end" transform="translate(-7,248.45454545454544)" font-family="Georgia" font-size="10px" fill="#000" opacity="1">50,000</text><text text-anchor="end" transform="translate(-7,221.1818181818182)" font-family="Georgia" font-size="10px" fill="#000" opacity="1">100,000</text><text text-anchor="end" transform="translate(-7,193.9090909090909)" font-family="Georgia" font-size="10px" fill="#000" opacity="1">150,000</text><text text-anchor="end" transform="translate(-7,166.63636363636363)" font-family="Georgia" font-size="10px" fill="#000" opacity="1">200,000</text><text text-anchor="end" transform="translate(-7,139.36363636363637)" font-family="Georgia" font-size="10px" fill="#000" opacity="1">250,000</text><text text-anchor="end" transform="translate(-7,112.0909090909091)" font-family="Georgia" font-size="10px" fill="#000" opacity="1">300,000</text><text text-anchor="end" transform="translate(-7,84.81818181818181)" font-family="Georgia" font-size="10px" fill="#000" opacity="1">350,000</text><text text-anchor="end" transform="translate(-7,57.54545454545453)" font-family="Georgia" font-size="10px" fill="#000" opacity="1">400,000</text><text text-anchor="end" transform="translate(-7,30.27272727272728)" font-family="Georgia" font-size="10px" fill="#000" opacity="1">450,000</text><text text-anchor="end" transform="translate(-7,3)" font-family="Georgia" font-size="10px" fill="#000" opacity="1">500,000</text></g><g class="mark-rule role-axis-domain" pointer-events="none"><line transform="translate(0,300)" x2="0" y2="-300" stroke="#888" stroke-width="1" opacity="1"/></g><g class="mark-text role-axis-title" pointer-events="none"><text text-anchor="middle" transform="translate(-50.033203125,150) rotate(-90) translate(0,-2)" font-family="Georgia" font-size="11px" font-weight="bold" fill="#000" opacity="1">Profit per Prison Worker</text></g></g><path class="foreground" aria-hidden="true" d="" pointer-events="none" display="none"/></g></g><g class="mark-rect role-mark concat_0_marks" role="graphics-object" aria-roledescription="rect mark container"><path aria-label="Enterprise: Furniture; Profit per Prison Worker: 4825.783972" role="graphics-symbol" aria-roledescription="bar" d="M241,270.09502692436365h18v2.63224580290904h-18Z" fill="#4c78a8"/><path aria-label="Enterprise: Metal Products; Profit per Prison Worker: 985.9813084" role="graphics-symbol" aria-roledescription="bar" d="M381,272.1894647408727h18v0.5378079863999687h-18Z" fill="#4c78a8"/><path aria-label="Enterprise: License Plates; Profit per Prison Worker: 86908.33333" role="graphics-symbol" aria-roledescription="bar" d="M321,225.32272727454546h18v47.404545452727234h-18Z" fill="#4c78a8"/><path aria-label="Enterprise: General Fabrication; Profit per Prison Worker: 3581.967213" role="graphics-symbol" aria-roledescription="bar" d="M261,270.7734724292727h18v1.953800297999976h-18Z" fill="#4c78a8"/><path aria-label="Enterprise: Bindery; Profit per Prison Worker: 3731.343284" role="graphics-symbol" aria-roledescription="bar" d="M21,270.6919945723636h18v2.035278154909065h-18Z" fill="#4c78a8"/><path aria-label="Enterprise: Knitting Mill; Profit per Prison Worker: 1232.55814" role="graphics-symbol" aria-roledescription="bar" d="M281,272.05496828727274h18v0.672304439999948h-18Z" fill="#4c78a8"/><path aria-label="Enterprise: Fabric Products; Profit per Prison Worker: 4159.502262" role="graphics-symbol" aria-roledescription="bar" d="M201,270.4584533116364h18v2.268819415636301h-18Z" fill="#4c78a8"/><path aria-label="Enterprise: Shoes; Profit per Prison Worker: 1438.202247" role="graphics-symbol" aria-roledescription="bar" d="M501,271.9427987743636h18v0.7844739529090816h-18Z" fill="#4c78a8"/><path aria-label="Enterprise: Mattresses; Profit per Prison Worker: 31000" role="graphics-symbol" aria-roledescription="bar" d="M341,255.81818181818184h18v16.90909090909085h-18Z" fill="#4c78a8"/><path aria-label="Enterprise: Cleaning Products; Profit per Prison Worker: 56775" role="graphics-symbol" aria-roledescription="bar" d="M41,241.7590909090909h18v30.96818181818179h-18Z" fill="#4c78a8"/><path aria-label="Enterprise: Modular Construction; Profit per Prison Worker: 486500" role="graphics-symbol" aria-roledescription="bar" d="M421,7.3636363636363615h18v265.3636363636363h-18Z" fill="#4c78a8"/><path aria-label="Enterprise: Meat Cutting; Profit per Prison Worker: 32052.63158" role="graphics-symbol" aria-roledescription="bar" d="M361,255.2440191381818h18v17.48325358909088h-18Z" fill="#4c78a8"/><path aria-label="Enterprise: Bakery; Profit per Prison Worker: 13217.3913" role="graphics-symbol" aria-roledescription="bar" d="M1,265.5177865636364h18v7.2094861636363134h-18Z" fill="#4c78a8"/><path aria-label="Enterprise: Coffee Roasting; Profit per Prison Worker: 12800" role="graphics-symbol" aria-roledescription="bar" d="M61,265.74545454545455h18v6.9818181818181415h-18Z" fill="#4c78a8"/><path aria-label="Enterprise: Food and Beverage Packaging; Profit per Prison Worker: 20188.67925" role="graphics-symbol" aria-roledescription="bar" d="M221,261.7152658636364h18v11.012006863636316h-18Z" fill="#4c78a8"/><path aria-label="Enterprise: Metal Signs; Profit per Prison Worker: 22750" role="graphics-symbol" aria-roledescription="bar" d="M401,260.3181818181818h18v12.409090909090878h-18Z" fill="#4c78a8"/><path aria-label="Enterprise: Printing; Profit per Prison Worker: 18987.80488" role="graphics-symbol" aria-roledescription="bar" d="M481,262.37028824727275h18v10.356984479999937h-18Z" fill="#4c78a8"/><path aria-label="Enterprise: Dental Lab; Profit per Prison Worker: 1721.311475" role="graphics-symbol" aria-roledescription="bar" d="M141,271.7883755590909h18v0.9388971681817679h-18Z" fill="#4c78a8"/><path aria-label="Enterprise: Digital Services; Profit per Prison Worker: 27470.58824" role="graphics-symbol" aria-roledescription="bar" d="M161,257.7433155054545h18v14.983957221818173h-18Z" fill="#4c78a8"/><path aria-label="Enterprise: Laundry; Profit per Prison Worker: 4460.31746" role="graphics-symbol" aria-roledescription="bar" d="M301,270.29437229454544h18v2.4329004327272514h-18Z" fill="#4c78a8"/><path aria-label="Enterprise: Optical; Profit per Prison Worker: 12224.13793" role="graphics-symbol" aria-roledescription="bar" d="M441,266.0595611290909h18v6.667711598181768h-18Z" fill="#4c78a8"/><path aria-label="Enterprise: Construction Services and Facility Maintenance; Profit per Prison Worker: 14127.36318" role="graphics-symbol" aria-roledescription="bar" d="M81,265.02143826545455h18v7.705834461818142h-18Z" fill="#4c78a8"/><path aria-label="Enterprise: Dairy; Profit per Prison Worker: 39981.48148" role="graphics-symbol" aria-roledescription="bar" d="M121,250.91919192h18v21.808080807272688h-18Z" fill="#4c78a8"/><path aria-label="Enterprise: Crops; Profit per Prison Worker: −28000" role="graphics-symbol" aria-roledescription="bar" d="M101,272.7272727272727h18v15.272727272727309h-18Z" fill="#4c78a8"/><path aria-label="Enterprise: Poultry; Profit per Prison Worker: 20979.16667" role="graphics-symbol" aria-roledescription="bar" d="M461,261.28409090727274h18v11.44318181999995h-18Z" fill="#4c78a8"/><path aria-label="Enterprise: Egg Production; Profit per Prison Worker: 178642.8571" role="graphics-symbol" aria-roledescription="bar" d="M181,175.28571430909093h18v97.44155841818176h-18Z" fill="#4c78a8"/></g></g><path class="foreground" aria-hidden="true" d="" display="none"/></g></g><g class="mark-group role-scope concat_1_group" role="graphics-object" aria-roledescription="group mark container"><g transform="translate(0,523)"><path class="background" aria-hidden="true" d="M0,0h20v20h-20Z"/><g><g class="mark-text role-mark concat_1_marks" role="graphics-object" aria-roledescription="text mark container"><text aria-label="text: Source: California Prison Industry Authority" role="graphics-symbol" aria-roledescription="text mark" text-anchor="start" transform="translate(10,8)" font-family="Verdana" font-size="10px" fill="black">Source: California Prison Industry Authority</text></g></g><path class="foreground" aria-hidden="true" d="" display="none"/></g></g></g><path class="foreground" aria-hidden="true" d="" display="none"/></g></g></g></svg>